# xmcd
#
# Track frame offsets: 
#        150
#        12222
#        23427
#        46355
#        63717
#        84112
#        101805
#        112030
#        130895
#        154982
#        176640
#        191335
#        224312
#        242267
#
# Disc length: 3422 seconds
#
# Revision: 5
# Processed by: cddbd v1.5.2PL0 Copyright (c) Steve Scherf et al.
# Submitted via: ExactAudioCopy v0.90b4
#
DISCID=b20d5c0e
DTITLE=Various Artist - The Blues Guitar Box [Disc1]
DYEAR=1990
DGENRE=Blues
TTITLE0=T-Bone Walker - Tell Me What's The Reason
TTITLE1=John Mayall's Bluesbreakers (Feat. Eric Clapton) - Steppin' Ou
TTITLE1=t
TTITLE2=Muddy Waters (Feat. Rory Gallagher) - Who's Gonna Be Your Swee
TTITLE2=t Man
TTITLE3=Robert Cray and Albert Collins - She's Into Something
TTITLE4=Lonnie Mack and Stevie Ray Vaughan - If You Have To Know
TTITLE5=John Mayall's Bluesbreakers (Feat. Peter Green) - Greeny
TTITLE6=John Lee Hooker - Dimples
TTITLE7=The Allmon Bros. Band (Feat. Duane Allman) - Statesboro Blues
TTITLE8=B.B. King - I Need My Baby
TTITLE9=Barry Goldberg (Feat. Mike Bloomfield) - Blues For Barry And M
TTITLE9=ichael
TTITLE10=Steve Cropper (Feat. Albert King) - Big Bird
TTITLE11=Roy Buchanan - Pete's Blues
TTITLE12=Clarence Gatemouth Brown - Gate Walks To Board
TTITLE13=Otis Rush - So Many Roads
EXTD=
EXTT0=
EXTT1=
EXTT2=
EXTT3=
EXTT4=
EXTT5=
EXTT6=
EXTT7=
EXTT8=
EXTT9=
EXTT10=
EXTT11=
EXTT12=
EXTT13=
PLAYORDER=
